 <svg   xmlns="http://www.w3.org/2000/svg" viewBox="0 0 24 24" fill="white" width="80" height="80">
                  <path d="M0 0h24v24H0z" fill="none"/>
                  <path d="M3 14c0 1.3.84 2.4 2 2.82V20H3v2h6v-2H7v-3.18C8.16 16.4 9 15.3 9 14V6H3v8zm2-6h2v3H5V8zm0 5h2v1H5v-1zm15.64-4.46l-.96-.32c-.41-.14-.68-.52-.68-.95V3c0-.55-.45-1-1-1h-3c-.55 0-1 .45-1 1v4.28c0 .43-.27.81-.68.95l-.96.32c-.81.28-1.36 1.04-1.36 1.9V20c0 1.1.9 2 2 2h7c1.1 0 2-.9 2-2v-9.56c0-.86-.55-1.62-1.36-1.9zM16 4h1v1h-1V4zm4 16h-7v-2h7v2zm0-4h-7v-2h7v2zm0-4h-7v-2h7v2z"/>
                </svg>